<svg width="12" height="12" viewBox="0 0 12 12" fill="none" xmlns="http://www.w3.org/2000/svg">
<path fill-rule="evenodd" clip-rule="evenodd" d="M8.00787 5.55556H10.0679C11.0097 5.55556 11.7601 4.77688 11.7601 3.81851V1.72207C11.7601 0.778676 10.995 0 10.0679 0H8.00787C7.08084 0 6.31567 0.778676 6.31567 1.73705V3.83348C6.31567 4.77688 7.08084 5.55556 8.00787 5.55556ZM7.3457 1.72207C7.3457 1.34771 7.63999 1.04822 8.00786 1.04822H10.0679C10.4358 1.04822 10.7301 1.34771 10.7301 1.72207V3.81851C10.7301 4.19287 10.4358 4.49236 10.0679 4.49236H8.00786C7.63999 4.49236 7.3457 4.19287 7.3457 3.81851V1.72207Z" fill="#1D8AED"/>
<path fill-rule="evenodd" clip-rule="evenodd" d="M1.69219 11.9999H3.75225C4.69399 11.9999 5.44444 11.2191 5.44444 10.2732V8.17106C5.44444 7.22512 4.67928 6.44434 3.75225 6.44434H1.69219C0.765165 6.44434 0 7.22512 0 8.17106V10.2732C0 11.2191 0.765165 11.9999 1.69219 11.9999ZM1.03002 8.17106C1.03002 7.79568 1.32432 7.49538 1.69219 7.49538H3.75225C4.12012 7.49538 4.41441 7.79568 4.41441 8.17106V10.2732C4.41441 10.6485 4.12012 10.9488 3.75225 10.9488H1.69219C1.32432 10.9488 1.03002 10.6485 1.03002 10.2732V8.17106Z" fill="#1D8AED"/>
<path fill-rule="evenodd" clip-rule="evenodd" d="M6.45141 8.44434H11.6244C11.6998 8.44434 11.7601 8.57602 11.7601 8.74063V9.48137C11.7601 9.64598 11.6998 9.77767 11.6244 9.77767H6.45141C6.376 9.77767 6.31567 9.64598 6.31567 9.48137V8.74063C6.31567 8.57602 6.376 8.44434 6.45141 8.44434Z" fill="#1D8AED"/>
<path fill-rule="evenodd" clip-rule="evenodd" d="M9.80007 6.58109V11.6409C9.80007 11.7169 9.67102 11.7777 9.5097 11.7777H8.78378C8.62246 11.7777 8.49341 11.7169 8.49341 11.6409V6.58109C8.49341 6.50511 8.62246 6.44434 8.78378 6.44434H9.52584C9.68715 6.45953 9.80007 6.52031 9.80007 6.58109Z" fill="#1D8AED"/>
<path fill-rule="evenodd" clip-rule="evenodd" d="M0 3.83348C0 4.77688 0.765165 5.55556 1.69219 5.55556H3.75225C4.69399 5.55556 5.44444 4.77688 5.44444 3.81851V1.72207C5.44444 0.778676 4.69399 0 3.75225 0H1.69219C0.765165 0 0 0.778676 0 1.73705V3.83348ZM1.03002 1.72207C1.03002 1.36268 1.32432 1.04822 1.69219 1.04822H3.75225C4.12012 1.04822 4.41441 1.36268 4.41441 1.72207V3.81851C4.41441 4.19287 4.12012 4.49236 3.75225 4.49236H1.69219C1.32432 4.49236 1.03002 4.19287 1.03002 3.81851V1.72207Z" fill="#1D8AED"/>
</svg>
