<svg width="12" height="13" viewBox="0 0 12 13" fill="none" xmlns="http://www.w3.org/2000/svg">
<mask id="mask0_802_2351" style="mask-type:alpha" maskUnits="userSpaceOnUse" x="0" y="0" width="12" height="13">
<path fill-rule="evenodd" clip-rule="evenodd" d="M1.68629 0.335938C0.792607 0.335938 0.0688171 1.1373 0.0688171 2.12641V5.70873C0.0688171 7.4509 0.693449 9.12165 1.80566 10.3529C2.9185 11.5849 4.42671 12.2761 5.99997 12.2761C9.27534 12.2761 11.9311 9.33594 11.9311 5.70873V2.12641C11.9311 1.1373 11.2067 0.335938 10.3137 0.335938H1.68629ZM2.56864 9.50873C1.6579 8.50057 1.14695 7.1339 1.14695 5.70873V2.12642C1.14695 1.79717 1.38885 1.52982 1.68632 1.52982H10.3137C10.6112 1.52982 10.8531 1.79717 10.8531 2.12642V5.70873C10.8531 8.67608 8.68042 11.0822 6 11.0822C4.71285 11.0822 3.47874 10.5162 2.56864 9.50873Z" fill="white"/>
</mask>
<g mask="url(#mask0_802_2351)">
<path fill-rule="evenodd" clip-rule="evenodd" d="M-3.0891 15.6776H15.0896V-3.06592H-3.0891V15.6776Z" fill="#1D8AED"/>
<path fill-rule="evenodd" clip-rule="evenodd" d="M-3.62843 16.8722H15.6284V-4.25977H-3.62843V16.8722Z" fill="#1D8AED"/>
</g>
<path fill-rule="evenodd" clip-rule="evenodd" d="M7.2941 5.91544C7.2941 6.63468 6.7672 7.21809 6.11763 7.21809C5.46806 7.21809 4.94116 6.63468 4.94116 5.91544C4.94116 5.1962 5.46806 4.61279 6.11763 4.61279C6.7672 4.61279 7.2941 5.1962 7.2941 5.91544Z" fill="#1D8AED"/>
</svg>
