<svg width="12" height="13" viewBox="0 0 12 13" fill="none" xmlns="http://www.w3.org/2000/svg">
<path fill-rule="evenodd" clip-rule="evenodd" d="M5.56118 5.85826C5.86497 5.54827 6.35726 5.54827 6.66105 5.85826C6.96484 6.16825 6.96484 6.67059 6.66105 6.98058C6.35726 7.29057 5.86497 7.29057 5.56118 6.98058C5.25739 6.67059 5.25739 6.16825 5.56118 5.85826ZM6 0.183594C9.31371 0.183594 12 2.92465 12 6.30592C12 9.68743 9.31371 12.4285 6 12.4285C2.68629 12.4285 0 9.68743 0 6.30592C0 2.92465 2.68629 0.183594 6 0.183594ZM5.99999 1.29667C3.28871 1.29667 1.09083 3.53936 1.09083 6.30592C1.09083 9.07248 3.28871 11.3152 5.99999 11.3152C8.71127 11.3152 10.9091 9.07248 10.9091 6.30592C10.9091 3.53936 8.71127 1.29667 5.99999 1.29667Z" fill="#1D8AED"/>
</svg>
