<svg width="21" height="20" viewBox="0 0 21 20" fill="none" xmlns="http://www.w3.org/2000/svg">
<path fill-rule="evenodd" clip-rule="evenodd" d="M9.10114 4.60772V1.01295C9.10114 0.516616 9.5035 0.114258 9.99983 0.114258C10.4962 0.114258 10.8985 0.516616 10.8985 1.01295V4.60772C10.8985 5.10406 10.4962 5.50641 9.99983 5.50641C9.5035 5.50641 9.10114 5.10406 9.10114 4.60772ZM9.10114 18.9868V15.392C9.10114 14.8957 9.5035 14.4934 9.99983 14.4934C10.4962 14.4934 10.8985 14.8957 10.8985 15.392V18.9868C10.8985 19.4831 10.4962 19.8855 9.99983 19.8855C9.5035 19.8855 9.10114 19.4831 9.10114 18.9868ZM3.01064 4.2816L5.55394 6.8249C5.9049 7.17586 6.47392 7.17586 6.82488 6.8249C7.17585 6.47394 7.17585 5.90492 6.82488 5.55396L4.28158 3.01066C3.93062 2.6597 3.3616 2.6597 3.01064 3.01066C2.65968 3.36162 2.65968 3.93064 3.01064 4.2816ZM15.7182 16.9891L13.1749 14.4458C12.8239 14.0948 12.8239 13.5258 13.1749 13.1749C13.5258 12.8239 14.0949 12.8239 14.4458 13.1749L16.9891 15.7182C17.3401 16.0691 17.3401 16.6381 16.9891 16.9891C16.6382 17.3401 16.0691 17.3401 15.7182 16.9891ZM1.01295 10.8986H4.60772C5.10405 10.8986 5.50641 10.4962 5.50641 9.99988C5.50641 9.50355 5.10405 9.10119 4.60772 9.10119H1.01295C0.516616 9.10119 0.114258 9.50355 0.114258 9.99988C0.114258 10.4962 0.516616 10.8986 1.01295 10.8986ZM18.9868 10.8986H15.392C14.8957 10.8986 14.4933 10.4962 14.4933 9.99988C14.4933 9.50355 14.8957 9.10119 15.392 9.10119H18.9868C19.4831 9.10119 19.8855 9.50355 19.8855 9.99988C19.8855 10.4962 19.4831 10.8986 18.9868 10.8986ZM4.28158 16.9891L6.82488 14.4458C7.17585 14.0948 7.17585 13.5258 6.82488 13.1749C6.47392 12.8239 5.9049 12.8239 5.55394 13.1749L3.01064 15.7182C2.65968 16.0691 2.65968 16.6381 3.01064 16.9891C3.3616 17.3401 3.93062 17.3401 4.28158 16.9891ZM16.9891 4.2816L14.4458 6.8249C14.0949 7.17586 13.5258 7.17586 13.1749 6.8249C12.8239 6.47394 12.8239 5.90492 13.1749 5.55396L15.7182 3.01066C16.0691 2.6597 16.6382 2.6597 16.9891 3.01066C17.3401 3.36162 17.3401 3.93064 16.9891 4.2816Z" fill="#FAFAFA"/>
<mask id="mask0_864_2214" style="mask-type:alpha" maskUnits="userSpaceOnUse" x="0" y="0" width="20" height="20">
<path fill-rule="evenodd" clip-rule="evenodd" d="M9.10114 4.60772V1.01295C9.10114 0.516616 9.5035 0.114258 9.99983 0.114258C10.4962 0.114258 10.8985 0.516616 10.8985 1.01295V4.60772C10.8985 5.10406 10.4962 5.50641 9.99983 5.50641C9.5035 5.50641 9.10114 5.10406 9.10114 4.60772ZM9.10114 18.9868V15.392C9.10114 14.8957 9.5035 14.4934 9.99983 14.4934C10.4962 14.4934 10.8985 14.8957 10.8985 15.392V18.9868C10.8985 19.4831 10.4962 19.8855 9.99983 19.8855C9.5035 19.8855 9.10114 19.4831 9.10114 18.9868ZM3.01064 4.2816L5.55394 6.8249C5.9049 7.17586 6.47392 7.17586 6.82488 6.8249C7.17585 6.47394 7.17585 5.90492 6.82488 5.55396L4.28158 3.01066C3.93062 2.6597 3.3616 2.6597 3.01064 3.01066C2.65968 3.36162 2.65968 3.93064 3.01064 4.2816ZM15.7182 16.9891L13.1749 14.4458C12.8239 14.0948 12.8239 13.5258 13.1749 13.1749C13.5258 12.8239 14.0949 12.8239 14.4458 13.1749L16.9891 15.7182C17.3401 16.0691 17.3401 16.6381 16.9891 16.9891C16.6382 17.3401 16.0691 17.3401 15.7182 16.9891ZM1.01295 10.8986H4.60772C5.10405 10.8986 5.50641 10.4962 5.50641 9.99988C5.50641 9.50355 5.10405 9.10119 4.60772 9.10119H1.01295C0.516616 9.10119 0.114258 9.50355 0.114258 9.99988C0.114258 10.4962 0.516616 10.8986 1.01295 10.8986ZM18.9868 10.8986H15.392C14.8957 10.8986 14.4933 10.4962 14.4933 9.99988C14.4933 9.50355 14.8957 9.10119 15.392 9.10119H18.9868C19.4831 9.10119 19.8855 9.50355 19.8855 9.99988C19.8855 10.4962 19.4831 10.8986 18.9868 10.8986ZM4.28158 16.9891L6.82488 14.4458C7.17585 14.0948 7.17585 13.5258 6.82488 13.1749C6.47392 12.8239 5.9049 12.8239 5.55394 13.1749L3.01064 15.7182C2.65968 16.0691 2.65968 16.6381 3.01064 16.9891C3.3616 17.3401 3.93062 17.3401 4.28158 16.9891ZM16.9891 4.2816L14.4458 6.8249C14.0949 7.17586 13.5258 7.17586 13.1749 6.8249C12.8239 6.47394 12.8239 5.90492 13.1749 5.55396L15.7182 3.01066C16.0691 2.6597 16.6382 2.6597 16.9891 3.01066C17.3401 3.36162 17.3401 3.93064 16.9891 4.2816Z" fill="white"/>
</mask>
<g mask="url(#mask0_864_2214)">
<rect x="-0.784424" y="-0.784668" width="21.5686" height="21.5686" fill="#1D8AED"/>
</g>
</svg>
