<svg width="20" height="20" viewBox="0 0 20 20" fill="none" xmlns="http://www.w3.org/2000/svg">
<path fill-rule="evenodd" clip-rule="evenodd" d="M8.33205 19.7829C8.14256 19.7829 7.95136 19.7257 7.7931 19.6073L0.422756 14.1171C0.141733 13.908 0.0352261 13.559 0.156276 13.2461C0.277326 12.9331 0.600267 12.7241 0.962561 12.7241H18.4998C18.972 12.7241 19.3553 13.0755 19.3553 13.5084C19.3553 13.9414 18.972 14.2927 18.4998 14.2927H3.37158L8.87185 18.39C9.23843 18.6633 9.29446 19.1571 8.99633 19.4931C8.82737 19.6841 8.58057 19.7829 8.33205 19.7829Z" fill="#1D8AED"/>
<mask id="mask0_864_2242" style="mask-type:alpha" maskUnits="userSpaceOnUse" x="0" y="0" width="20" height="9">
<path fill-rule="evenodd" clip-rule="evenodd" d="M0 0.39209H19.4621V8.43083H0V0.39209Z" fill="white"/>
</mask>
<g mask="url(#mask0_864_2242)">
<path fill-rule="evenodd" clip-rule="evenodd" d="M18.4996 8.43099H0.962409C0.430732 8.43099 0 8.03609 0 7.54864C0 7.06158 0.430732 6.66628 0.962409 6.66628H16.0444L10.456 1.92158C10.0664 1.5906 10.0428 1.03216 10.4043 0.67491C10.7657 0.317655 11.374 0.295694 11.7645 0.627067L19.1537 6.90158C19.4441 7.14824 19.5403 7.53256 19.3958 7.87099C19.2512 8.20903 18.8957 8.43099 18.4996 8.43099Z" fill="#1D8AED"/>
</g>
</svg>
