<svg width="12" height="13" viewBox="0 0 12 13" fill="none" xmlns="http://www.w3.org/2000/svg">
<path fill-rule="evenodd" clip-rule="evenodd" d="M2.91277 5.16846V5.16846C3.12336 5.38335 3.12336 5.73173 2.91277 5.94662L1.68313 7.20136C0.865715 8.06498 0.877244 9.43761 1.70924 10.2866C2.54124 11.1356 3.88666 11.1476 4.72619 10.3202L5.62642 9.40136C5.82595 9.198 6.15113 9.15886 6.36948 9.34109C6.62054 9.5507 6.63442 9.92933 6.41089 10.1574L5.48195 11.1048C4.21254 12.356 2.19466 12.3382 0.946656 11.0647C-0.301109 9.79127 -0.318756 7.73221 0.91395 6.43017L2.15019 5.16846C2.36077 4.95358 2.70219 4.95358 2.91277 5.16846V5.16846ZM6.31827 0.926693C7.58769 -0.324448 9.60557 -0.30644 10.8536 0.966789C12.1016 2.24026 12.119 4.29932 10.8863 5.6016L9.65004 6.86307C9.43945 7.07795 9.09804 7.07795 8.88745 6.86307V6.86307C8.67686 6.64818 8.67686 6.2998 8.88745 6.08492L10.1173 4.83017C10.9347 3.96655 10.923 2.59392 10.091 1.74494C9.25898 0.895961 7.9138 0.884196 7.0731 1.71253L6.16745 2.63137C5.96745 2.83426 5.64204 2.87243 5.42416 2.68948C5.1738 2.47915 5.1611 2.10052 5.38533 1.87315L6.31827 0.926693Z" fill="#1D8AED"/>
</svg>
