<svg width="20" height="21" viewBox="0 0 20 21" fill="none" xmlns="http://www.w3.org/2000/svg">
<path fill-rule="evenodd" clip-rule="evenodd" d="M3.86641 9.03816C4.87985 7.9865 6.28394 7.44352 7.71426 7.54973C9.14422 7.65594 10.4592 8.4009 11.3181 9.59157C11.5905 9.96908 11.5161 10.5046 11.1521 10.7871C10.7877 11.0696 10.2716 10.9924 9.99918 10.6145C9.42669 9.82113 8.54981 9.32437 7.59638 9.25356C6.64296 9.18275 5.70714 9.54461 5.03115 10.246L2.5705 12.7972C1.32202 14.1377 1.33999 16.2683 2.61075 17.586C3.88151 18.9037 5.93606 18.9224 7.21832 17.6382L8.62672 16.1777C8.94836 15.8442 9.46982 15.8442 9.79146 16.1777C10.1131 16.5112 10.1131 17.052 9.79146 17.3855L8.373 18.8564C6.43416 20.798 3.35214 20.7704 1.44601 18.7938C-0.460125 16.8172 -0.486719 13.6212 1.3957 11.6002L3.86641 9.03816Z" fill="#FAFAFA"/>
<mask id="mask0_3016_923" style="mask-type:alpha" maskUnits="userSpaceOnUse" x="7" y="0" width="13" height="13">
<path fill-rule="evenodd" clip-rule="evenodd" d="M7.99783 0H19.0602V12.4416H7.99783V0Z" fill="white"/>
</mask>
<g mask="url(#mask0_3016_923)">
<path fill-rule="evenodd" clip-rule="evenodd" d="M9.83542 1.64143C11.9715 -0.574633 15.3671 -0.542738 17.4671 1.71245C19.5672 3.96807 19.5965 7.61516 17.5226 9.92181L15.4419 12.1562C15.0875 12.5368 14.513 12.5368 14.1587 12.1562C13.8043 11.776 13.8043 11.1585 14.1587 10.7779L16.2282 8.55543C17.6037 7.02617 17.5839 4.59449 16.1839 3.09074C14.7839 1.58743 12.5203 1.56616 11.1056 3.03376L9.58163 4.66083C9.24508 5.02018 8.6975 5.0878 8.33086 4.76375C7.90958 4.39121 7.8882 3.72056 8.26553 3.31784L9.83542 1.64143Z" fill="#FAFAFA"/>
</g>
</svg>
