<svg width="16" height="16" viewBox="0 0 16 16" fill="none" xmlns="http://www.w3.org/2000/svg">
<path d="M15.1667 6.5H15.4445V10.1667H11.6667C10.6562 10.1667 9.83337 9.34379 9.83337 8.33333C9.83337 7.32288 10.6562 6.5 11.6667 6.5H15.1667Z" stroke="#FAFAFA"/>
<path d="M14 10.3332V12.7406C14 13.0746 13.8518 13.3949 13.5878 13.631C13.3239 13.8672 12.9659 13.9998 12.5926 13.9998H2.74078C2.36751 13.9998 2.00953 13.8672 1.74559 13.631C1.48165 13.3949 1.33337 13.0746 1.33337 12.7406V3.92576C1.33337 3.59179 1.48165 3.27149 1.74559 3.03533C2.00953 2.79918 2.36751 2.6665 2.74078 2.6665H14" stroke="#FAFAFA" stroke-width="2" stroke-linecap="round" stroke-linejoin="round"/>
<path d="M11.301 8.33295C11.301 8.76181 11.6499 9.11072 12.0788 9.11072C12.5077 9.11072 12.8566 8.76181 12.8566 8.33295C12.8566 7.90408 12.5077 7.55517 12.0788 7.55517C11.6499 7.55517 11.301 7.90408 11.301 8.33295Z" fill="#FAFAFA"/>
</svg>
